<?xml version="1.0" encoding="UTF-8"?>
<svg version="1.1" xmlns="http://www.w3.org/2000/svg" width="512" height="512">
<path d="M0 0 C1.60658226 0.45566345 1.60658226 0.45566345 3.24562073 0.92053223 C6.7810603 1.92696559 10.31025022 2.9537398 13.83984375 3.98046875 C16.33279566 4.69361333 18.82613114 5.40541825 21.31982422 6.1159668 C28.7592406 8.23933004 36.19105997 10.38858621 43.62154388 12.54296875 C46.55406265 13.39315167 49.48680363 14.24256668 52.41954899 15.09196758 C53.91840575 15.5260815 55.41724795 15.96024569 56.91607571 16.39445972 C60.66942928 17.48174935 64.42298392 18.56833636 68.17695618 19.65348816 C68.91402518 19.86657025 69.65109419 20.07965235 70.41049862 20.29919147 C71.88952216 20.72676533 73.36855969 21.15429078 74.84761143 21.58176708 C79.16589272 22.83069534 83.48193687 24.08700828 87.79625225 25.34956551 C90.51473587 26.14398944 93.23466852 26.93336925 95.95490837 27.72175598 C97.79490077 28.2568214 99.63304128 28.79824285 101.47108459 29.33996582 C128.83367443 37.25042996 153.77821863 37.94551973 181.26171875 30.4453125 C182.34192291 30.15244354 183.42212708 29.85957458 184.5350647 29.55783081 C204.32749769 24.14599385 224.03468883 18.42106069 243.75854492 12.76586914 C252.73714351 10.19197407 261.7167654 7.62165148 270.69639969 5.05137253 C273.8142785 4.15856326 276.93186605 3.2647429 280.04940796 2.37075806 C281.94618134 1.82739199 283.8429604 1.28404575 285.73974609 0.74072266 C286.6008902 0.49349457 287.4620343 0.24626648 288.34927368 -0.00845337 C289.14178528 -0.23530823 289.93429687 -0.46216309 290.75082397 -0.69589233 C291.43605322 -0.89236044 292.12128246 -1.08882854 292.82727623 -1.29125023 C301.49232886 -3.69419062 310.62317747 -4.16257426 318.77734375 0.16796875 C326.1095223 5.32063058 329.95384603 10.6974756 332.77734375 19.16796875 C333.65527728 29.55924759 332.43439675 37.03146781 325.6953125 45.0859375 C321.85310554 49.38186617 317.70082478 51.97345576 312.65234375 54.66796875 C311.30293701 55.41373169 311.30293701 55.41373169 309.92626953 56.17456055 C307.94808353 57.26561159 305.96595916 58.34954481 303.98046875 59.42724609 C300.61185557 61.2579025 297.25564362 63.11026738 293.90234375 64.96875 C289.01804336 67.67345795 284.13010892 70.37142968 279.23828125 73.0625 C276.75127889 74.43094744 274.2642918 75.79942262 271.77734375 77.16796875 C271.16217896 77.50648865 270.54701416 77.84500854 269.91320801 78.19378662 C265.69862841 80.5137857 261.48748058 82.83991705 257.27734375 85.16796875 C256.21112793 85.75425049 255.14491211 86.34053223 254.04638672 86.94458008 C231.69440362 99.27799248 231.69440362 99.27799248 218.46484375 120.48046875 C216.12744057 133.01744946 218.99245402 144.94998145 221.54101562 157.20825195 C221.94607956 159.20365925 222.34998319 161.19930239 222.75282288 163.19515991 C223.61821698 167.47112063 224.49128863 171.74541331 225.37037659 176.01857948 C226.7625678 182.78831792 228.1346858 189.5620307 229.50378418 196.33647156 C232.90710625 213.16051622 236.33694572 229.97914114 239.77130127 246.796875 C242.44172986 259.87537025 245.10488936 272.95526053 247.74699259 286.03951138 C249.10506555 292.76081457 250.47761324 299.47894063 251.86153412 306.19496691 C252.72250044 310.38926176 253.57039724 314.58612331 254.41488457 318.78376389 C254.80609384 320.71485381 255.2025581 322.64488861 255.60495186 324.57367897 C261.94598672 355.01189714 261.94598672 355.01189714 255.3203125 366.0546875 C250.67991998 372.41026308 245.61070304 377.2976442 237.77734375 379.16796875 C227.30118346 380.31515159 218.71795213 379.61863567 210.18969727 372.92114258 C204.02754531 367.48203473 201.12739674 360.32685491 197.83984375 352.98046875 C197.18900539 351.55732115 196.53695802 350.13472593 195.88378906 348.71264648 C193.82309911 344.20895264 191.79572334 339.69075831 189.77734375 335.16796875 C189.45425232 334.44407959 189.13116089 333.72019043 188.79827881 332.97436523 C185.87622462 326.42077094 182.96901716 319.86061634 180.06762695 313.29785156 C175.06286449 301.98957934 169.97009777 290.72310712 164.79724121 279.49069214 C163.95696702 277.66428918 163.11911883 275.83676795 162.28381348 274.00808716 C161.1167807 271.45522498 159.94057852 268.90679318 158.76171875 266.359375 C158.41757935 265.60269531 158.07343994 264.84601563 157.71887207 264.06640625 C155.45429592 259.21013926 153.21937799 254.61998911 148.46484375 251.79296875 C144.8649051 250.95577371 142.35892778 251.27257274 138.77734375 252.16796875 C134.54138659 254.98016794 132.67487118 257.70637943 130.5703125 262.29296875 C130.14740685 263.20162941 130.14740685 263.20162941 129.71595764 264.12864685 C128.78603569 266.13609516 127.87537888 268.15166159 126.96484375 270.16796875 C126.30460714 271.60466024 125.64345441 273.04093103 124.98144531 274.47680664 C120.2344677 284.80995588 115.63068371 295.20776321 111.02734375 305.60546875 C105.39601415 318.32284712 99.7428723 331.03018088 93.96203613 343.68045044 C93.13979083 345.4852334 92.32237102 347.29222373 91.51013184 349.10153198 C86.02759421 361.30141686 81.24967803 371.8504603 68.77734375 378.16796875 C61.3666326 380.6382058 51.31269828 380.44627991 44.21484375 377.10546875 C36.67738286 372.58299222 31.00430256 366.8175235 28.77734375 358.16796875 C27.68933425 345.65664248 29.99850714 333.92648494 32.54101562 321.73950195 C32.94632058 319.7388328 33.35021582 317.73787763 33.75282288 315.73666382 C34.61643564 311.45873065 35.48957758 307.18289941 36.37037659 302.90847206 C37.76482579 296.13976501 39.13588684 289.36644622 40.50378418 282.59233093 C43.16315014 269.43843981 45.84495959 256.28917796 48.53005219 243.14051819 C51.94931465 226.39381551 55.36115111 209.6456446 58.74699259 192.89214963 C60.10679121 186.16787427 61.47914524 179.44632533 62.86153412 172.72665942 C63.72053326 168.53868044 64.5690514 164.34862625 65.41488457 160.15797043 C65.80710668 158.2258239 66.20363642 156.29454565 66.60495186 154.36426735 C69.78975591 139.02859917 72.76205481 124.23622691 64.45703125 109.88671875 C57.78273614 100.40411368 48.51305088 95.02825401 38.46484375 89.66796875 C37.17533198 88.96996087 35.88644306 88.27080124 34.59814453 87.57055664 C31.95240156 86.13322716 29.30440012 84.70019741 26.65478516 83.27001953 C19.68196938 79.49880588 12.76699454 75.62291723 5.8449707 71.75952148 C0.66563982 68.87237516 -4.51930855 65.99856546 -9.73696899 63.18132019 C-12.18834693 61.85656453 -14.63492711 60.52307988 -17.08123779 59.18899536 C-18.78478159 58.26458696 -20.49506223 57.35262678 -22.20556641 56.44116211 C-33.29559674 50.38207339 -41.14607342 44.39771723 -45.22265625 32.16796875 C-46.12311287 21.51010517 -44.67294032 14.1963258 -37.97265625 5.85546875 C-27.59997508 -5.34256555 -13.50236085 -3.98894779 0 0 Z " fill="#000000" transform="translate(112.22265625,132.83203125)"/>
<path d="M0 0 C3.58346249 2.78036026 6.81407403 5.77575533 10 9 C10.70898438 9.68707031 11.41796875 10.37414062 12.1484375 11.08203125 C24.82039175 24.16667366 29.46257384 42.04092028 29.26953125 59.8359375 C28.40275642 77.89730468 20.64761214 94.31495313 7.50927734 106.65966797 C-8.08260458 120.50622762 -26.1449721 125.1102145 -46.52441406 124.1953125 C-64.94750036 122.74181457 -80.98837754 112.62621564 -92.83203125 98.875 C-104.60769487 83.25898482 -109.20978112 64.77443753 -106.4921875 45.375 C-103.14132114 27.81183839 -94.30122363 11.32158013 -79.36474609 0.85400391 C-54.90148216 -14.94101109 -24.68111656 -16.10466679 0 0 Z " fill="#000000" transform="translate(295,11)"/>
</svg>
