<?xml version="1.0" encoding="UTF-8"?>
<svg version="1.1" xmlns="http://www.w3.org/2000/svg" width="512" height="512">
<path d="M0 0 C10.0053426 6.92677565 18.54816177 17.00795628 21.29296875 29.13671875 C21.58915262 31.13892171 21.74530272 33.09563779 21.8359375 35.1171875 C21.87589844 35.76816406 21.91585937 36.41914062 21.95703125 37.08984375 C22.44227329 52.36069609 19.44683162 63.18792942 9.73828125 74.72265625 C7.86024423 77.08659197 6.32970612 79.49727555 4.8359375 82.1171875 C5.6403125 82.3853125 6.4446875 82.6534375 7.2734375 82.9296875 C9.12680747 83.54747749 10.98005448 84.16564959 12.83178711 84.78833008 C17.01057098 86.19008901 21.19897777 87.55254911 25.40234375 88.87890625 C59.12342542 99.62922384 90.52457178 116.71569757 114.6484375 143.1796875 C115.15487793 143.73422607 115.66131836 144.28876465 116.18310547 144.86010742 C130.15380751 160.34860877 140.98375035 177.25604899 149.8359375 196.1171875 C150.36960937 197.220625 150.90328125 198.3240625 151.453125 199.4609375 C171.54875379 243.19235766 170.73892757 297.94033951 154.5546875 342.71875 C149.21652961 356.72511946 142.25295113 369.73768492 133.8359375 382.1171875 C133.34561035 382.84873047 132.8552832 383.58027344 132.35009766 384.33398438 C119.82374352 402.82695247 104.12077294 419.22727328 85.8359375 432.1171875 C85.24006836 432.5414502 84.64419922 432.96571289 84.03027344 433.40283203 C61.82229366 449.08145569 37.83884692 457.92683015 11.55859375 464.609375 C10.585271 464.8664624 9.61194824 465.1235498 8.60913086 465.38842773 C6.83544431 465.85452989 5.05515385 466.29659182 3.26782227 466.70727539 C-2.04681567 468.11326717 -4.43370745 469.90834756 -7.20654297 474.6652832 C-7.58439941 475.37128662 -7.96225586 476.07729004 -8.3515625 476.8046875 C-9.18902737 478.25137971 -10.02885056 479.69670944 -10.87109375 481.140625 C-11.26377441 481.82995117 -11.65645508 482.51927734 -12.06103516 483.22949219 C-14.98059749 488.22596318 -18.19123267 493.02278062 -23.1640625 496.1171875 C-25.53125 496.5859375 -25.53125 496.5859375 -28.0390625 496.6171875 C-29.27269531 496.66359375 -29.27269531 496.66359375 -30.53125 496.7109375 C-35.13939448 495.67171204 -37.96487546 492.93355145 -40.49609375 489.09960938 C-41.80028551 486.79916003 -43.02716022 484.47390777 -44.2265625 482.1171875 C-45.04232432 480.52948046 -45.86639033 478.94600915 -46.69921875 477.3671875 C-47.0537915 476.67109375 -47.40836426 475.975 -47.77368164 475.2578125 C-51.11612305 470.11180263 -54.33949189 467.60344554 -60.30078125 466.23046875 C-61.50508789 465.93736816 -62.70939453 465.64426758 -63.95019531 465.34228516 C-64.58590454 465.19430481 -65.22161377 465.04632446 -65.87658691 464.89385986 C-109.57137951 454.62440879 -148.11491033 432.53557505 -176.1640625 397.1171875 C-177.05013547 396.02161281 -177.93687735 394.92657885 -178.82421875 393.83203125 C-206.9292838 358.93561314 -220.35458758 319.69036406 -220.34936523 274.84082031 C-220.35155386 272.75044416 -220.36981622 270.6605964 -220.38867188 268.5703125 C-220.56511377 226.6529343 -203.92067308 185.12292481 -177.1640625 153.1171875 C-176.72578125 152.58335449 -176.2875 152.04952148 -175.8359375 151.49951172 C-168.84182474 142.98984773 -161.52604039 135.28949959 -153.1640625 128.1171875 C-152.35582031 127.42238281 -151.54757813 126.72757813 -150.71484375 126.01171875 C-138.92155639 116.24570724 -125.73065494 108.1626326 -112.1640625 101.1171875 C-111.10517822 100.56248779 -111.10517822 100.56248779 -110.02490234 99.99658203 C-94.21344733 91.88137299 -77.27336717 87.57944465 -60.1640625 83.1171875 C-61.63041621 80.07375218 -63.23704199 77.70607675 -65.4140625 75.1171875 C-75.65233651 62.16438155 -78.79241509 48.2647341 -77.1640625 32.1171875 C-74.29152389 19.31768988 -66.73908361 9.12697231 -55.98046875 1.83984375 C-39.41556544 -8.2920874 -17.17278318 -10.21886604 0 0 Z M-50.1640625 23.1171875 C-55.73869536 30.70014879 -58.12558397 37.70090828 -57.1640625 47.1171875 C-55.82191199 50.47256377 -54.70617048 52.57507952 -52.1640625 55.1171875 C-49.82332517 54.84059341 -47.49056032 54.49529259 -45.1640625 54.1171875 C-42.38121766 53.9704933 -39.60266867 53.97667534 -36.81640625 53.984375 C-36.04148331 53.98341827 -35.26656036 53.98246155 -34.46815491 53.98147583 C-32.84034137 53.98079932 -31.21252506 53.98261644 -29.5847168 53.98681641 C-27.10524399 53.99217954 -24.62595169 53.98684964 -22.14648438 53.98046875 C-20.55729127 53.98112948 -18.96809828 53.98241055 -17.37890625 53.984375 C-16.64437729 53.98235077 -15.90984833 53.98032654 -15.15306091 53.97824097 C-11.94280849 53.99274467 -8.92966658 54.15676062 -5.76000977 54.69189453 C-3.20209691 55.39988662 -3.20209691 55.39988662 -1.4140625 54.0546875 C2.30669044 48.28752044 2.46893028 42.31420483 1.4765625 35.734375 C-0.41088865 27.59793017 -5.4479098 21.20427191 -12.42578125 16.63671875 C-25.20825824 10.09190151 -40.07220347 12.73887832 -50.1640625 23.1171875 Z M-37.1640625 72.1171875 C-38.68556408 75.16019066 -38.40305643 77.7712725 -38.1640625 81.1171875 C-34.54942691 83.52694456 -31.8418699 83.44958182 -27.6640625 83.4296875 C-26.98730469 83.44580078 -26.31054688 83.46191406 -25.61328125 83.47851562 C-22.71831665 83.48137062 -20.66592009 83.45344218 -18.22265625 81.81640625 C-16.40342612 78.8962398 -16.74877049 76.43952359 -17.1640625 73.1171875 C-19.42850304 70.78850751 -20.8001202 70.16317477 -24.0390625 69.75390625 C-25.5859375 69.77904297 -25.5859375 69.77904297 -27.1640625 69.8046875 C-28.7109375 69.81048828 -28.7109375 69.81048828 -30.2890625 69.81640625 C-33.12010811 70.11258901 -34.79905346 70.5678876 -37.1640625 72.1171875 Z M-62.1640625 104.1171875 C-62.91623047 104.28347656 -63.66839844 104.44976562 -64.44335938 104.62109375 C-109.6302216 114.71245256 -149.44214559 144.22420209 -174.5859375 182.7890625 C-198.31306316 220.29274104 -207.37229101 265.93607861 -198.046875 309.53125 C-192.09525821 335.28199997 -180.48916121 360.27571458 -163.46044922 380.56054688 C-162.23406007 382.03313769 -161.04353594 383.53538355 -159.85546875 385.0390625 C-152.02537218 394.92089561 -143.38641936 403.7120156 -133.1640625 411.1171875 C-132.14957031 411.87515625 -131.13507813 412.633125 -130.08984375 413.4140625 C-111.00586334 427.53387323 -90.89383471 436.87376034 -68.1015625 443.5546875 C-67.3065332 443.78961914 -66.51150391 444.02455078 -65.69238281 444.26660156 C-53.49384541 447.65090602 -41.21311707 448.5005549 -28.6015625 448.4296875 C-27.55782974 448.42645477 -27.55782974 448.42645477 -26.49301147 448.42315674 C-2.84520049 448.3063007 20.32105056 444.34604477 41.8359375 434.1171875 C42.73723389 433.69614746 42.73723389 433.69614746 43.65673828 433.26660156 C82.62066106 414.96140294 113.91186246 383.24475669 131.8359375 344.1171875 C132.37863281 342.96992188 132.92132813 341.82265625 133.48046875 340.640625 C151.37893842 301.21867914 150.13962606 256.0504793 135.90429688 215.78369141 C127.4798726 193.35520068 114.58924723 173.17347068 97.8359375 156.1171875 C97.05234863 155.30507812 97.05234863 155.30507812 96.25292969 154.4765625 C77.58630483 135.13336954 55.15675088 120.28091044 29.8359375 111.1171875 C28.08603516 110.45589844 28.08603516 110.45589844 26.30078125 109.78125 C-1.21074378 99.90224754 -33.65609233 97.38135083 -62.1640625 104.1171875 Z " fill="#000000" transform="translate(283.1640625,10.8828125)"/>
<path d="M0 0 C0.6384082 0.47501953 1.27681641 0.95003906 1.93457031 1.43945312 C35.07823906 26.41091138 57.00142682 62.45536067 63.58984375 103.43505859 C64.43100659 110.74616561 64.39444257 118.08595738 64.375 125.4375 C64.3737915 126.28104034 64.37258301 127.12458069 64.37133789 127.99368286 C64.32066253 141.02945633 63.72720596 153.42505746 60 166 C59.5973291 167.37551025 59.5973291 167.37551025 59.18652344 168.77880859 C47.0586493 208.94315812 19.79642903 244.70514938 -17.17236328 265.20458984 C-46.16843331 280.52195522 -74.7117564 283.76021344 -107 283 C-107.82258301 282.98163086 -108.64516602 282.96326172 -109.49267578 282.94433594 C-129.74267429 282.24376669 -150.61634108 274.12282944 -168 264 C-168.67063477 263.61199219 -169.34126953 263.22398437 -170.03222656 262.82421875 C-178.97907761 257.5833855 -187.18571339 251.84526538 -195 245 C-196.20076172 243.98099609 -196.20076172 243.98099609 -197.42578125 242.94140625 C-202.426943 238.62948024 -206.80371163 234.08963883 -211 229 C-211.43183594 228.49645996 -211.86367187 227.99291992 -212.30859375 227.47412109 C-220.69463666 217.69324516 -227.17247065 207.47838054 -233 196 C-233.50144531 195.02546875 -234.00289062 194.0509375 -234.51953125 193.046875 C-238.54804473 184.70849154 -241.38912581 175.86674069 -244 167 C-244.2160791 166.2889209 -244.4321582 165.5778418 -244.65478516 164.84521484 C-251.56568015 141.07151649 -250.54282646 110.71301844 -244 87 C-243.76925781 86.14277344 -243.53851563 85.28554687 -243.30078125 84.40234375 C-232.06531207 44.03788041 -203.92391552 10.00241421 -168 -11 C-116.60808519 -39.90950302 -46.73570127 -36.81795071 0 0 Z M-173.19921875 15.11328125 C-175.11107409 16.92033502 -175.11107409 16.92033502 -176.1171875 19.33984375 C-175.93514872 23.47212397 -173.24659911 25.51043707 -170.4375 28.25 C-169.32257923 29.39823838 -168.2118747 30.55058602 -167.10546875 31.70703125 C-166.29988525 32.54741943 -166.29988525 32.54741943 -165.47802734 33.40478516 C-161.60835118 37.5812741 -158.43943476 41.67099576 -157.375 47.3125 C-158.17578889 50.75589224 -159.08223946 52.00363753 -162 54 C-166.0792071 54.94865281 -168.61074561 53.90504707 -172.0625 51.8125 C-177.12143934 48.27381917 -181.28282213 43.80873228 -185.39477539 39.23168945 C-188.43097463 35.87899914 -188.43097463 35.87899914 -192.66015625 34.8671875 C-206.37388168 41.50655373 -217.11334407 68.06642178 -222.00585938 81.82958984 C-227.55404466 97.07305615 -227.55404466 97.07305615 -229 113 C-227.55982144 115.23227677 -226.67999655 115.79487857 -224.16601562 116.55322266 C-221.93130999 117.01416847 -219.87336376 117.15752437 -217.59375 117.2109375 C-216.76746094 117.23929688 -215.94117188 117.26765625 -215.08984375 117.296875 C-213.36349906 117.34895176 -211.6369013 117.39322531 -209.91015625 117.4296875 C-206.34697111 117.56309849 -203.65885536 117.68155324 -200.421875 119.24609375 C-198.57203422 121.52790284 -198.58174667 122.78513008 -198.75 125.6875 C-198.78609375 126.49574219 -198.8221875 127.30398438 -198.859375 128.13671875 C-198.90578125 128.75160156 -198.9521875 129.36648438 -199 130 C-204.50488582 133.45784285 -209.39208778 133.47163838 -215.6875 133.5625 C-217.56658187 133.59694346 -219.4455367 133.63955303 -221.32421875 133.69140625 C-222.5630481 133.70989624 -222.5630481 133.70989624 -223.8269043 133.72875977 C-226.29260564 133.87196672 -226.29260564 133.87196672 -229 136 C-230.05805139 141.68600528 -228.72341088 147.81534505 -227.4375 153.375 C-227.26114014 154.14320068 -227.08478027 154.91140137 -226.90307617 155.70288086 C-221.43115674 178.33558324 -210.90611083 201.56298899 -194 218 C-190.90174455 216.62898168 -188.86748541 215.0782648 -186.5390625 212.62890625 C-185.90226562 211.97212891 -185.26546875 211.31535156 -184.609375 210.63867188 C-183.29213761 209.26049929 -181.97701179 207.88030524 -180.6640625 206.49804688 C-176.2294133 201.93375572 -172.4073411 198.47702775 -165.875 197.5625 C-163 198 -163 198 -160.625 199.625 C-159 202 -159 202 -158.375 204.6875 C-159.76100269 212.03331425 -165.08962675 217.28361638 -170.31640625 222.3125 C-175.21668896 227.11392673 -175.21668896 227.11392673 -177.0078125 233.421875 C-175.5804353 237.07330504 -173.06917538 238.59983124 -169.875 240.625 C-169.21902832 241.04813477 -168.56305664 241.47126953 -167.88720703 241.90722656 C-151.9940806 251.83453012 -135.18159318 258.65794581 -117 263 C-115.80761719 263.31066406 -114.61523438 263.62132812 -113.38671875 263.94140625 C-109.72186184 264.87742038 -109.72186184 264.87742038 -106 265 C-103.57794525 263.63287047 -103.57794525 263.63287047 -102 261 C-101.62584105 258.10534392 -101.43998513 255.51769397 -101.4375 252.625 C-101.40321036 246.98190536 -101.12440252 242.93487538 -98 238 C-94.90826248 236.45413124 -92.40570448 236.70640479 -89 237 C-86.40844624 238.84136714 -85.25484094 240.05344793 -84.42578125 243.1328125 C-83.77330576 247.52654655 -83.64430633 251.94680469 -83.48242188 256.38085938 C-83.40955109 260.64985015 -83.40955109 260.64985015 -81 264 C-74.92891448 264.86969599 -69.01868758 263.6094851 -63.1875 262 C-62.37418213 261.77852295 -61.56086426 261.5570459 -60.72290039 261.32885742 C-43.50977775 256.44777001 -21.73727493 249.15652693 -9 236 C-8.1562441 232.99185468 -8.1562441 232.99185468 -9 230 C-10.72473401 227.44546346 -10.72473401 227.44546346 -13.125 225.1875 C-24.60985742 213.21353981 -24.60985742 213.21353981 -25.3125 205.625 C-25 202 -25 202 -23.375 199.5625 C-21 198 -21 198 -18.3125 197.3125 C-9.94813229 199.04850085 -4.12748011 206.74366094 1.1940918 212.99902344 C4.41629926 216.71325928 4.41629926 216.71325928 9 218 C28.58811133 197.12378158 44.11511407 168.42735271 45.375 139.1875 C45.25125 138.135625 45.1275 137.08375 45 136 C41.71564444 133.81042963 40.43951397 133.69847701 36.59765625 133.5078125 C35.54255859 133.44207031 34.48746094 133.37632812 33.40039062 133.30859375 C31.17944017 133.18643498 28.95806158 133.07182093 26.73632812 132.96484375 C25.67994141 132.89652344 24.62355469 132.82820312 23.53515625 132.7578125 C22.08701538 132.68264404 22.08701538 132.68264404 20.60961914 132.60595703 C17.3199612 131.84209409 16.06955783 130.6280956 14 128 C13.42733774 124.56402642 13.49019659 122.81420777 15.34765625 119.84765625 C19.55549689 116.91642116 23.92951829 117.44074983 28.9375 117.4375 C36.18216038 117.46903115 36.18216038 117.46903115 43.19140625 115.91015625 C45.29872641 114.05412817 45.29872641 114.05412817 45.4375 110.890625 C42.42951728 84.14106436 28.75017927 53.70095099 9 35 C5.32758934 36.28053774 2.90595413 37.70591294 0.1171875 40.40625 C-0.57503906 41.06753906 -1.26726562 41.72882813 -1.98046875 42.41015625 C-3.04201172 43.44462891 -3.04201172 43.44462891 -4.125 44.5 C-5.54250191 45.86642076 -6.96170448 47.23108006 -8.3828125 48.59375 C-9.00559082 49.19896484 -9.62836914 49.80417969 -10.27001953 50.42773438 C-13.39106334 53.26424611 -15.40963013 54.29197511 -19.5625 54.3125 C-20.34753906 54.32925781 -21.13257813 54.34601563 -21.94140625 54.36328125 C-22.62074219 54.24339844 -23.30007813 54.12351562 -24 54 C-26.07581217 50.88628174 -26.60870046 48.95736593 -26.5 45.234375 C-25.24379894 39.62072653 -20.36129717 35.46399535 -16.56640625 31.3828125 C-15.76074219 30.51398438 -14.95507812 29.64515625 -14.125 28.75 C-13.36445313 27.96109375 -12.60390625 27.1721875 -11.8203125 26.359375 C-9.77478339 23.70808834 -8.90598626 22.36360285 -9 19 C-12.55019285 14.4158406 -17.40883085 11.58280193 -22.3125 8.625 C-23.5034729 7.90546143 -23.5034729 7.90546143 -24.71850586 7.17138672 C-39.86856593 -1.7989444 -64.07292438 -14.19569855 -82 -10 C-84.36431213 -7.63568787 -83.75184627 -1.00141228 -83.98632812 2.38671875 C-84.5439457 8.4958387 -84.5439457 8.4958387 -86.8515625 11.046875 C-90.04326856 12.46283187 -92.55943221 12.37533467 -96 12 C-99.30550549 9.45916843 -99.54913984 6.8866231 -100.13476562 2.83984375 C-100.33652484 1.28044026 -100.53444511 -0.27946474 -100.72851562 -1.83984375 C-101.3421558 -6.3488766 -101.3421558 -6.3488766 -103.84765625 -10.03125 C-121.74079623 -18.08478669 -158.98811807 4.9246072 -173.19921875 15.11328125 Z " fill="#000000" transform="translate(348,159)"/>
<path d="M0 0 C2.4375 2.625 2.4375 2.625 3.19140625 4.87109375 C4.49106844 8.70014334 5.65765956 11.65421912 9.35595703 13.67138672 C13.40549919 15.3634081 17.56454886 16.68700375 21.73828125 18.03515625 C27.17769023 19.79582124 31.77564938 22.33140742 36.4375 25.625 C37.324375 26.2025 38.21125 26.78 39.125 27.375 C44.56027742 32.66337803 49.88495959 39.6306088 50.73828125 47.34375 C50.77822396 56.82348653 50.77822396 56.82348653 47.4375 60.625 C42.03994586 65.48279873 37.66512449 66.10427545 30.5703125 66.02734375 C22.69238332 65.01558975 17.45990064 58.98395498 12.45703125 53.26171875 C9.86175498 51.1583904 7.71523693 50.94489229 4.4375 50.625 C4.29165936 53.85368746 4.20325894 57.08152365 4.125 60.3125 C4.08310547 61.22451172 4.04121094 62.13652344 3.99804688 63.07617188 C3.91998574 67.36953435 3.94431618 69.8663342 6.32421875 73.52734375 C10.5099973 76.34762365 14.80633552 77.87807638 19.5625 79.5 C27.62802497 82.407461 34.55610716 85.43173911 41.4375 90.625 C42.31535156 91.23408203 42.31535156 91.23408203 43.2109375 91.85546875 C50.65633163 97.392272 55.55832943 106.68566884 57.4375 115.625 C59.05355072 131.5765029 55.97553244 143.85723023 46.11328125 156.63671875 C38.3586347 165.74567343 27.60737758 170.24181592 16.4375 173.625 C10.02977756 175.24113292 10.02977756 175.24113292 5.4375 179.625 C4.9649649 181.26111864 4.53042318 182.9084729 4.125 184.5625 C3.13175547 187.9643625 2.5140692 189.53808361 0.125 192.25 C-3.13362294 193.91720244 -4.94521734 194.15252039 -8.5625 193.625 C-12.06359293 192.0761294 -13.31761943 191.18903423 -14.86328125 187.62890625 C-15.19714844 186.49324219 -15.53101563 185.35757813 -15.875 184.1875 C-17.66718479 178.71019909 -17.66718479 178.71019909 -21.875 175.1875 C-23.42156891 174.62110949 -24.98826266 174.10920079 -26.5625 173.625 C-29.19253984 172.67840644 -31.81702096 171.72227971 -34.4375 170.75 C-35.13794434 170.49202637 -35.83838867 170.23405273 -36.56005859 169.96826172 C-49.22498468 165.21854498 -59.2993875 157.8453082 -65.6875 145.66796875 C-67.64146359 141.10581269 -68.10453797 136.56247317 -67.5625 131.625 C-65.37463259 126.55835968 -61.82704236 123.67827552 -56.875 121.375 C-49.98331824 119.81461922 -43.69261751 119.68986373 -37.421875 123.2265625 C-34.64203106 125.31728547 -32.61605178 127.89300544 -30.4375 130.5859375 C-27.31637256 133.98016359 -23.49599294 136.27025593 -19.5625 138.625 C-18.9025 138.295 -18.2425 137.965 -17.5625 137.625 C-16.09188968 131.87043789 -16.48265102 125.63454466 -16.75 119.75 C-16.80542969 118.49445313 -16.86085937 117.23890625 -16.91796875 115.9453125 C-17.68545193 111.99161128 -18.29811372 110.94133061 -21.5625 108.625 C-24.3761155 107.31660022 -27.26326803 106.28241701 -30.1875 105.25 C-43.68675142 100.20122619 -55.81120629 93.59970888 -62.625 80.1875 C-67.2073837 70.02798027 -67.54758266 55.90307444 -63.9375 45.3125 C-61.78997675 40.55190649 -59.0049747 36.53397828 -55.5625 32.625 C-55.01078125 31.95726562 -54.4590625 31.28953125 -53.890625 30.6015625 C-45.67744416 21.44070695 -33.91353899 17.42157573 -22.42578125 13.9609375 C-18.98560285 12.3558338 -18.16814217 11.00503017 -16.5625 7.625 C-16.22347656 6.98175781 -15.88445312 6.33851563 -15.53515625 5.67578125 C-15.23480469 5.10214844 -14.93445313 4.52851563 -14.625 3.9375 C-11.09364103 -1.73407653 -6.14578322 -3.29773734 0 0 Z M-24.98828125 52.9140625 C-26.78022232 54.66592392 -26.78022232 54.66592392 -27.8125 57.625 C-27.45350279 61.9329665 -25.63414273 63.68987472 -22.5625 66.625 C-20.39718832 67.56936349 -20.39718832 67.56936349 -18.5625 67.625 C-15.0750976 63.12043857 -14.95948363 59.09168935 -15.5625 53.625 C-16.42903414 50.69419326 -16.42903414 50.69419326 -17.5625 48.625 C-20.83368321 48.625 -22.62756075 50.80574608 -24.98828125 52.9140625 Z M5.4375 116.625 C3.0784926 118.9840074 3.18183121 119.4546234 3.171875 122.65234375 C3.16929687 123.44447266 3.16671875 124.23660156 3.1640625 125.05273438 C3.17179687 125.88095703 3.17953125 126.70917969 3.1875 127.5625 C3.17976563 128.38685547 3.17203125 129.21121094 3.1640625 130.06054688 C3.16664063 130.85396484 3.16921875 131.64738281 3.171875 132.46484375 C3.17413086 133.19050537 3.17638672 133.91616699 3.17871094 134.66381836 C3.33323101 136.94643629 3.33323101 136.94643629 5.4375 139.625 C9.84688215 139.12107061 12.22593816 137.6629639 15.4375 134.625 C17.42725322 132.00214348 17.43803215 130.59626411 17.5 127.25 C16.1038436 122.48664287 13.61429748 120.20198892 9.4375 117.625 C7.40697449 116.7659118 7.40697449 116.7659118 5.4375 116.625 Z " fill="#000000" transform="translate(261.5625,187.375)"/>
</svg>
